# xmcd
#
# Track frame offsets:
#  150
#  13436
#  52456
#
# Disc length: 1011 seconds
#
# Revision: 0
# Processed by: cddbd v1.5.1PL2 Copyright (c) Steve Scherf et al.
# Submitted via: Collectorz.com_Music_Collector 6.10
#
DISCID=2b03f103
DTITLE=LMC feat. Rachel McFarlane - You get what you give
DYEAR=2006
DGENRE=Dance
TTITLE0=You get what you give
TTITLE1=You get what you give
TTITLE2=Data track
EXTD=
EXTT0=
EXTT1=
EXTT2=
PLAYORDER=
